<?xml version="1.0" encoding="UTF-8"?>
<svg id="Layer_1" data-name="Layer 1" xmlns="http://www.w3.org/2000/svg" xmlns:xlink="http://www.w3.org/1999/xlink" viewBox="0 0 182.76509 214.74678">
  <defs>
    <style>
      .cls-1 {
        fill: url(#linear-gradient-8);
      }

      .cls-2 {
        fill: url(#linear-gradient-7);
      }

      .cls-3 {
        fill: url(#linear-gradient-5);
      }

      .cls-4 {
        fill: url(#linear-gradient-6);
      }

      .cls-5 {
        fill: url(#linear-gradient-9);
      }

      .cls-6 {
        fill: url(#linear-gradient-4);
      }

      .cls-7 {
        fill: url(#linear-gradient-3);
      }

      .cls-8 {
        fill: url(#linear-gradient-2);
      }

      .cls-9 {
        fill: url(#linear-gradient);
      }

      .cls-10 {
        clip-path: url(#clippath-1);
      }

      .cls-11 {
        fill: #fff;
      }

      .cls-12 {
        fill: url(#linear-gradient-10);
      }

      .cls-13 {
        fill: url(#linear-gradient-11);
      }

      .cls-14 {
        fill: url(#linear-gradient-12);
      }

      .cls-15 {
        fill: url(#linear-gradient-13);
      }

      .cls-16 {
        fill: url(#linear-gradient-19);
      }

      .cls-17 {
        fill: url(#linear-gradient-14);
      }

      .cls-18 {
        fill: url(#linear-gradient-21);
      }

      .cls-19 {
        fill: url(#linear-gradient-20);
      }

      .cls-20 {
        fill: url(#linear-gradient-22);
      }

      .cls-21 {
        fill: url(#linear-gradient-23);
      }

      .cls-22 {
        fill: url(#linear-gradient-28);
      }

      .cls-23 {
        fill: url(#linear-gradient-25);
      }

      .cls-24 {
        fill: url(#linear-gradient-32);
      }

      .cls-25 {
        fill: url(#linear-gradient-31);
      }

      .cls-26 {
        fill: url(#linear-gradient-33);
      }

      .cls-27 {
        fill: url(#linear-gradient-30);
      }

      .cls-28 {
        fill: url(#linear-gradient-15);
      }

      .cls-29 {
        fill: url(#linear-gradient-16);
      }

      .cls-30 {
        fill: url(#linear-gradient-17);
      }

      .cls-31 {
        fill: url(#linear-gradient-18);
      }

      .cls-32 {
        fill: url(#linear-gradient-27);
      }

      .cls-33 {
        fill: url(#linear-gradient-24);
      }

      .cls-34 {
        fill: url(#linear-gradient-26);
      }

      .cls-35 {
        fill: url(#linear-gradient-29);
      }
    </style>
    <linearGradient id="linear-gradient" x1="5.85484" y1="131.26315" x2="168.92446" y2="131.26315" gradientUnits="userSpaceOnUse">
      <stop offset="0" stop-color="#bdff00"/>
      <stop offset="1" stop-color="#00ffb7"/>
    </linearGradient>
    <linearGradient id="linear-gradient-2" x1="5.85504" y1="131.26244" x2="168.92454" y2="131.26244" xlink:href="#linear-gradient"/>
    <linearGradient id="linear-gradient-3" x1="5.85462" y1="131.21037" x2="168.92497" y2="131.21037" xlink:href="#linear-gradient"/>
    <linearGradient id="linear-gradient-4" x1="5.85494" y1="131.0227" x2="168.9246" y2="131.0227" xlink:href="#linear-gradient"/>
    <linearGradient id="linear-gradient-5" x1="5.85455" y1="131.26244" x2="168.92465" y2="131.26244" xlink:href="#linear-gradient"/>
    <linearGradient id="linear-gradient-6" x1="5.85415" y1="131.26244" x2="168.92474" y2="131.26244" xlink:href="#linear-gradient"/>
    <linearGradient id="linear-gradient-7" x1="-11.78888" y1="158.35273" x2="206.07457" y2="158.35273" xlink:href="#linear-gradient"/>
    <linearGradient id="linear-gradient-8" x1="-11.78867" y1="158.35267" x2="206.07187" y2="158.35267" xlink:href="#linear-gradient"/>
    <linearGradient id="linear-gradient-9" x1="-11.78851" y1="158.30169" x2="206.07309" y2="158.30169" xlink:href="#linear-gradient"/>
    <linearGradient id="linear-gradient-10" x1="-11.78921" y1="158.35267" x2="206.07375" y2="158.35267" xlink:href="#linear-gradient"/>
    <linearGradient id="linear-gradient-11" x1="-11.78882" y1="158.30169" x2="206.07351" y2="158.30169" xlink:href="#linear-gradient"/>
    <linearGradient id="linear-gradient-12" x1="-11.78884" y1="158.35267" x2="206.0733" y2="158.35267" xlink:href="#linear-gradient"/>
    <linearGradient id="linear-gradient-13" x1="-10.57201" y1="185.43954" x2="234.63214" y2="185.43954" xlink:href="#linear-gradient"/>
    <linearGradient id="linear-gradient-14" x1="-10.57214" y1="185.43954" x2="234.63333" y2="185.43954" xlink:href="#linear-gradient"/>
    <linearGradient id="linear-gradient-15" x1="-10.57188" y1="185.38599" x2="234.63192" y2="185.38599" xlink:href="#linear-gradient"/>
    <linearGradient id="linear-gradient-16" x1="-10.57262" y1="185.43954" x2="234.63395" y2="185.43954" xlink:href="#linear-gradient"/>
    <linearGradient id="linear-gradient-17" x1="-10.5708" y1="185.43954" x2="234.63095" y2="185.43954" xlink:href="#linear-gradient"/>
    <linearGradient id="linear-gradient-18" x1="-10.57209" y1="185.43954" x2="234.63293" y2="185.43954" xlink:href="#linear-gradient"/>
    <linearGradient id="linear-gradient-19" x1="-10.57176" y1="185.43954" x2="234.63283" y2="185.43954" xlink:href="#linear-gradient"/>
    <linearGradient id="linear-gradient-20" x1="-10.57193" y1="185.43954" x2="234.63205" y2="185.43954" xlink:href="#linear-gradient"/>
    <linearGradient id="linear-gradient-21" x1="118.86744" y1="49.30799" x2="139.66978" y2="49.30799" xlink:href="#linear-gradient"/>
    <linearGradient id="linear-gradient-22" x1="110.01988" y1="72.64739" x2="126.37774" y2="72.64739" xlink:href="#linear-gradient"/>
    <linearGradient id="linear-gradient-23" x1="110.01988" y1="72.64739" x2="126.37774" y2="72.64739" xlink:href="#linear-gradient"/>
    <clipPath id="clippath-1">
      <path class="cls-21" d="M110.01988,72.64739c0,4.5182,3.66274,8.18415,8.18055,8.18415,4.51987,0,8.17732-3.66596,8.17732-8.18415,0-4.52116-3.65745-8.18415-8.17732-8.18415-4.51781,0-8.18055,3.66299-8.18055,8.18415"/>
    </clipPath>
    <linearGradient id="linear-gradient-24" x1="109.91882" y1="72.64726" x2="126.48202" y2="72.64726" xlink:href="#linear-gradient"/>
    <linearGradient id="linear-gradient-25" x1=".08571" y1="53.49919" x2="104.10706" y2="53.49919" xlink:href="#linear-gradient"/>
    <linearGradient id="linear-gradient-26" x1="108.60644" y1="99.76719" x2="118.49082" y2="99.76719" xlink:href="#linear-gradient"/>
    <linearGradient id="linear-gradient-27" x1="108.28473" y1="99.76719" x2="118.79513" y2="99.76719" xlink:href="#linear-gradient"/>
    <linearGradient id="linear-gradient-28" x1="119.97862" y1="99.98689" x2="129.84289" y2="99.98689" xlink:href="#linear-gradient"/>
    <linearGradient id="linear-gradient-29" x1="119.67431" y1="99.98689" x2="130.1472" y2="99.98689" xlink:href="#linear-gradient"/>
    <linearGradient id="linear-gradient-30" x1="131.35041" y1="99.76719" x2="141.23492" y2="99.76719" xlink:href="#linear-gradient"/>
    <linearGradient id="linear-gradient-31" x1="131.02921" y1="99.76719" x2="141.53949" y2="99.76719" xlink:href="#linear-gradient"/>
    <linearGradient id="linear-gradient-32" x1="142.60285" y1="99.77222" x2="152.77672" y2="99.77222" xlink:href="#linear-gradient"/>
    <linearGradient id="linear-gradient-33" x1="142.29841" y1="99.77215" x2="153.08129" y2="99.77215" xlink:href="#linear-gradient"/>
  </defs>
  <g>
    <path class="cls-9" d="M21.23451,131.47157v-.47755c3.07473-.55617,4.40529-2.15495,4.40529-5.3685,0-5.02358-3.34837-6.79714-12.84684-6.79714-4.3728,0-9.67041.47948-12.70725.91875v23.09366l.10066-.06084c3.07537.43707,8.47158.91797,12.88087.91797,9.0855,0,13.19072-2.04926,13.19072-6.65665,0-3.10979-1.87938-5.20158-5.02345-5.5697ZM11.36122,126.0318h2.8337c.34169,1.16583.34169,2.29712,0,3.45109h-2.8337v-3.45109ZM14.87883,136.49632h-3.5176v-3.45303h3.5176c.34015,1.12472.34015,2.25098,0,3.45303Z"/>
    <polygon class="cls-8" points="42.87349 128.56853 39.11215 128.56853 39.11215 119.30786 27.8369 119.30786 27.8369 143.21702 39.11215 143.21702 39.11215 137.17158 42.87349 137.17158 42.87349 143.21702 54.14887 143.21702 54.14887 119.30786 42.87349 119.30786 42.87349 128.56853"/>
    <path class="cls-7" d="M69.36424,118.72282c-9.46522,0-13.15463,3.4877-13.12125,12.9167-.03338,8.91394,3.51554,12.0584,13.12125,12.0584,9.56305,0,12.80959-3.14446,12.88087-12.0584-.07128-9.429-3.44839-12.9167-12.88087-12.9167ZM68.13447,134.61719c-.9596-2.16178-1.33442-4.10883-1.43676-6.73437h3.38523c.95432,2.14683,1.36201,4.0953,1.43328,6.73437h-3.38175Z"/>
    <path class="cls-6" d="M97.0823,118.82838c-4.40451,0-9.70173.47948-12.77659.91875v23.46989h11.27538v-4.33813c1.77511.14062,3.54841.24296,4.50801.24296,6.79856,0,9.90641-3.17372,9.90641-9.97731,0-7.4496-3.65423-10.31616-12.91322-10.31616ZM98.41324,131.88068h-2.83215v-5.84888h2.83215c.37456,1.98997.37456,3.90209,0,5.84888Z"/>
    <path class="cls-3" d="M114.79109,119.30786l-5.12567,23.90916h11.27499l.27776-2.14812h4.23412l.27222,2.14812h11.27538l-5.12412-23.90916h-17.08469ZM122.03549,134.92241l.95458-7.2493h.68532l.956,7.2493h-2.59589Z"/>
    <polygon class="cls-4" points="149.65249 134.13797 149.65249 119.30786 138.37686 119.30786 138.37686 143.21702 158.01826 143.21702 158.01826 134.13797 149.65249 134.13797"/>
  </g>
  <path class="cls-2" d="M26.73551,158.35531c0-7.27778-3.72422-12.43992-13.39772-12.43992-4.60868,0-10.10787.47703-13.25208.92326v23.0247c3.1442.44958,8.6434.92674,13.25208.92674,9.67351,0,13.39772-5.16279,13.39772-12.43477ZM11.36122,153.57289h3.58849c.47742,3.03503.47742,6.52144,0,9.55944h-3.58849v-9.55944Z"/>
  <polygon class="cls-1" points="50.14779 154.79633 50.14779 146.39242 28.79289 146.39242 28.79289 170.31292 50.14779 170.31292 50.14779 161.90681 40.0715 161.90681 40.0715 159.9965 50.14779 159.9965 50.14779 156.67584 40.0715 156.67584 40.0715 154.79633 50.14779 154.79633"/>
  <path class="cls-5" d="M69.84178,154.31917c1.63797,0,3.3436.03789,5.25946.10556v-8.03232c-3.72357-.37778-6.93776-.57911-11.3763-.57911-6.6301,0-11.85488,1.29627-11.85488,7.62051,0,4.71166,1.87951,6.45545,8.50639,7.20844v1.53421c-1.26675.10724-2.66395.13856-4.10213.13856-1.43148,0-2.90304-.03132-4.40425-.13856v8.03258c2.83344.33963,6.83014.58105,11.27023.58105,9.19184,0,11.96096-1.67676,11.96096-7.14412,0-4.23412-2.05107-5.77786-10.07836-7.69037v-1.53086c1.60368-.06767,3.17746-.10556,4.8189-.10556Z"/>
  <rect class="cls-12" x="77.16365" y="146.39242" width="11.27048" height="23.9205"/>
  <path class="cls-13" d="M114.30387,155.24204v-8.61143c-3.44981-.47755-6.31792-.81731-10.79281-.81731-9.43261,0-13.01942,3.55356-13.01942,12.91335,0,8.91729,3.45148,12.06343,13.01942,12.06343,4.71244,0,8.02394-.10234,11.58047-.58105v-13.29719h-10.52226v5.26461h-2.80547v-6.66335c3.55704-.30045,9.0574-.40949,12.54007-.27106Z"/>
  <polygon class="cls-14" points="132.35436 170.31292 143.97169 170.31292 143.97169 146.39242 132.69682 146.39242 133.72216 155.00617 132.86825 155.00617 129.27976 146.39242 117.66603 146.39242 117.66603 170.31292 128.93793 170.31292 127.91466 160.91125 128.76625 160.91125 132.35436 170.31292"/>
  <polygon class="cls-15" points=".08571 197.39412 11.36122 197.39412 11.36122 190.59144 20.41385 190.59144 20.41385 184.44443 11.36122 184.44443 11.36122 182.56518 20.41385 182.56518 20.41385 173.48496 .08571 173.48496 .08571 197.39412"/>
  <polygon class="cls-17" points="22.81512 197.39412 44.16834 197.39412 44.16834 188.98931 34.09024 188.98931 34.09024 187.0786 44.16834 187.0786 44.16834 183.75782 34.09024 183.75782 34.09024 181.88011 44.16834 181.88011 44.16834 173.48496 22.81512 173.48496 22.81512 197.39412"/>
  <path class="cls-28" d="M45.88725,180.51618c0,4.71798,1.87422,6.45506,8.51141,7.21102v1.54078c-1.27023.1026-2.66872.12928-4.10522.12928-1.43341,0-2.9033-.02668-4.40619-.12928v8.02935c2.8337.33834,6.83169.57473,11.27538.57473,9.18771,0,11.95568-1.67045,11.95568-7.14245,0-4.23553-2.04926-5.76974-10.0781-7.68573v-1.53524c1.60536-.06896,3.1772-.10543,4.81877-.10543,1.63655,0,3.3485.03648,5.25933.10543v-8.02368c-3.72344-.3801-6.93416-.58504-11.37759-.58504-6.62713,0-11.85346,1.29795-11.85346,7.61625Z"/>
  <polygon class="cls-29" points="70.32706 182.56518 76.64498 182.56518 76.64498 197.39412 87.91882 197.39412 87.91882 182.56518 94.24009 182.56518 94.24009 173.48496 70.32706 173.48496 70.32706 182.56518"/>
  <rect class="cls-30" x="96.13262" y="173.48496" width="11.27551" height="23.90916"/>
  <polygon class="cls-31" points="124.83593 173.48496 122.785 189.0254 122.0998 189.0254 120.05377 173.48496 108.77877 173.48496 113.89967 197.39412 130.98565 197.39412 136.11157 173.48496 124.83593 173.48496"/>
  <path class="cls-16" d="M139.53637,173.48496l-5.12077,23.90916h11.2701l.27287-2.14812h4.24082l.27377,2.14812h11.26881l-5.11922-23.90916h-17.08637ZM146.77884,189.09319l.95832-7.24453h.68158l.9596,7.24453h-2.5995Z"/>
  <polygon class="cls-19" points="174.39958 188.30411 174.39958 173.48496 163.12395 173.48496 163.12395 197.39412 182.76509 197.39412 182.76509 188.30411 174.39958 188.30411"/>
  <path class="cls-18" d="M118.86744,49.30741c0,5.74667,4.65521,10.39865,10.40059,10.39865,5.74358,0,10.40175-4.65199,10.40175-10.39865,0-5.74242-4.65817-10.39749-10.40175-10.39749-5.74538,0-10.40059,4.65508-10.40059,10.39749"/>
  <g>
    <path class="cls-20" d="M110.01988,72.64739c0,4.5182,3.66274,8.18415,8.18055,8.18415,4.51987,0,8.17732-3.66596,8.17732-8.18415,0-4.52116-3.65745-8.18415-8.17732-8.18415-4.51781,0-8.18055,3.66299-8.18055,8.18415"/>
    <g class="cls-10">
      <polygon class="cls-33" points="126.37774 64.36579 126.48202 80.83154 110.01988 80.92872 109.91882 64.47161 126.37774 64.36579"/>
    </g>
  </g>
  <path class="cls-23" d="M71.43515,39.30021v-11.53948c0-15.31294-12.45101-27.76072-27.76072-27.76072H7.10068v17.6495h36.57374c5.57357,0,10.11458,4.5334,10.11458,10.11122v11.53948h-20.00101C15.20235,39.30021.08571,54.41839.08571,72.999c0,18.58745,15.11663,33.70537,33.70228,33.70537l37.64716.294v-50.05692h15.02203v50.05692h17.64989V39.30021h-32.67191ZM27.19269,65.41948c1.63294-2.11564,3.15232-2.8386,3.51232-4.95243,0,0-1.32785,6.65485,5.08597,10.63917.67217.48747,1.45996.91707,2.30408,1.39423,4.79183,2.54292,7.76229,7.62412,3.57793,13.05539-1.58048,2.12041-3.08813,2.91606-3.44916,4.96223,0,0,1.50546-7.19967-6.00123-11.12832-.67217-.36013-1.34254-.72837-1.87758-1.09481-4.56266-2.65054-7.15546-7.54987-3.15232-12.87545ZM47.79976,93.48891h-19.75328v-2.73961h19.75328v2.73961ZM48.94561,75.9469c-1.32733,1.75165-2.60543,2.34803-2.91116,4.10381,0,0,1.27462-6.03938-5.0366-9.30565-.54199-.3105-2.23267-1.32759-2.70983-1.63809-3.76508-2.22932-6.00781-6.33622-2.60917-10.7602,1.32617-1.81648,2.60917-2.41725,2.90601-4.1698,0,0-1.15552,5.55862,4.30204,8.88597h-.05452c.60115.42805,2.35641,1.51938,3.09149,1.8777,3.99425,2.18125,6.53742,6.40879,3.02175,11.00625Z"/>
  <g>
    <path class="cls-11" d="M3.14369,208.60171c-.12902-.24283-.36322-.36502-.70427-.36502-.18754,0-.34247.0504-.46388.14861-.12142.09938-.21718.26178-.2864.48335-.06986.22402-.11832.5148-.14591.87479-.02836.36-.04228.80055-.04228,1.32166,0,.55501.01959,1.00446.058,1.3468.03777.34363.09693.60915.17684.79681.07991.1887.18058.31592.30264.38126.12155.06548.26191.09693.42238.09693.13147,0,.25546-.0214.37005-.06664.11446-.04408.21332-.1334.29697-.26681.08314-.13353.14926-.32223.19837-.56648.04846-.24296.07295-.5639.07295-.96167h1.50095c0,.39776-.03081.77542-.0937,1.13155-.06226.35755-.17877.66844-.3493.93653-.17052.26681-.41039.47574-.71935.6268-.3096.15106-.71058.22659-1.20398.22659-.56326,0-1.01142-.08932-1.34551-.2681-.33357-.17748-.58917-.43424-.76601-.77039-.17748-.33602-.29194-.73752-.34427-1.20321-.0522-.46711-.07798-.98061-.07798-1.54323,0-.55514.02578-1.06736.07798-1.53691.05233-.46956.16679-.87234.34427-1.20837.17684-.33602.43243-.59909.76601-.78663.33409-.18883.78225-.28331,1.34551-.28331.5349,0,.95728.08558,1.26624.25675.30973.1713.5407.389.69357.65336.153.26436.24863.54882.28704.8534.03777.30586.05723.59162.05723.85842h-1.5016c0-.53374-.06419-.9239-.19257-1.16686Z"/>
    <path class="cls-11" d="M7.16268,212.4119c0,.18496.01199.35497.03648.50977.02397.15351.06922.28704.13534.40021.06612.1133.15673.20275.27132.2681.11446.06548.25869.09693.43231.09693.18122,0,.32661-.03145.43811-.09693.11136-.06535.20004-.1548.26616-.2681.06612-.11317.11072-.2467.13534-.40021.02449-.1548.03648-.32481.03648-.50977v-5.12167h1.5016v5.12167c0,.46698-.06599.85211-.19824,1.15668-.13211.30599-.3096.54766-.53181.72502-.22273.17877-.47639.29839-.76085.36-.28511.06174-.58092.09319-.88678.09319s-.60103-.02771-.88614-.08185c-.28511-.05529-.53877-.16614-.76085-.33473-.22286-.16743-.3997-.40666-.53181-.71497-.13224-.30844-.19824-.70994-.19824-1.20334v-5.12167h1.5016v5.12167Z"/>
    <path class="cls-11" d="M14.13782,207.29023c.62564,0,1.11208.15596,1.45958.46814.34801.31218.52163.78676.52163,1.42491,0,.4934-.10066.89619-.30264,1.20837-.20146.31218-.51415.51235-.93834.60167v.02011c.37572.05542.65013.17504.82375.36.17375.18509.28137.48335.32352.89503.01379.13714.02385.28563.03081.44674s.01392.34118.0214.54006c.01392.39145.03467.6897.06238.8949.0415.2052.13211.34621.27119.42174v.06161h-1.62688c-.07618-.10324-.12528-.22157-.14604-.35497s-.03454-.27183-.0415-.41658l-.0415-1.40854c-.01392-.2882-.08687-.5148-.21912-.67849-.13211-.16485-.35433-.2467-.66702-.2467h-.80313v3.10528h-1.5016v-7.34326h2.77351ZM13.49156,210.49862c.36116,0,.63944-.08301.83381-.25173.1945-.16743.29207-.45061.29207-.84837,0-.67849-.34737-1.01825-1.04222-1.01825h-.7093v2.11835h.62564Z"/>
    <path class="cls-11" d="M20.4667,207.29023l1.97051,7.34326h-1.56398l-.34427-1.55328h-1.98056l-.34427,1.55328h-1.56398l1.97064-7.34326h1.85592ZM20.26846,211.86681l-.71935-3.30158h-.02075l-.71935,3.30158h1.45945Z"/>
    <path class="cls-11" d="M26.74325,208.50362h-1.62624v6.12987h-1.5016v-6.12987h-1.62636v-1.21339h4.7542v1.21339Z"/>
    <path class="cls-11" d="M31.55029,208.50362h-2.65905v1.72819h2.50232v1.21339h-2.50232v1.97489h2.76294v1.21339h-4.26454v-7.34326h4.16065v1.21339Z"/>
    <path class="cls-11" d="M34.93874,207.29023c.52111,0,.9422.0843,1.26186.25173.31978.16859.56829.40898.74526.71999.17736.31205.29697.68841.35987,1.12652.06238.43927.09383.92893.09383,1.47015,0,.64575-.04021,1.20592-.12026,1.68166-.07991.47703-.21705.86977-.41155,1.17821-.1945.30831-.45563.53864-.78225.68841-.32661.15106-.7401.22659-1.24046.22659h-2.36711v-7.34326h2.46081ZM34.6468,213.54344c.26423,0,.47639-.04408.63621-.1334s.2864-.23665.3801-.443c.09448-.2052.15673-.47587.18818-.81189.03093-.33615.04666-.75402.04666-1.25503,0-.41787-.01392-.78534-.04163-1.1001-.02758-.31592-.08494-.5777-.17181-.78663-.08739-.20893-.21577-.36631-.38578-.47329-.17052-.10582-.39841-.15983-.68287-.15983h-.63621v5.16317h.66715Z"/>
    <path class="cls-11" d="M43.40491,207.29023c.30586,0,.58904.03145.84966.09306.26049.06174.48515.16485.67269.30844.18754.14346.33357.33602.43811.57525.10376.24038.15609.5349.15609.88485,0,.39776-.09383.73881-.28137,1.02328s-.46943.47832-.84463.58156v.02011c.41671.05542.74706.23033.99067.52498.24296.29452.36502.68841.36502,1.18194,0,.2882-.03841.56262-.11523.82311-.07605.26062-.20636.48837-.3908.68352-.18432.1963-.42419.35239-.71935.46827-.29581.11703-.66212.17491-1.1001.17491h-2.53377v-7.34326h2.51302ZM42.8209,210.30347c.41722,0,.72115-.07295.91256-.22028.19063-.1472.28627-.39647.28627-.74642,0-.34981-.08674-.59651-.26049-.7401-.17375-.14346-.44816-.21641-.82388-.21641h-.54186v1.9232h.42741ZM42.97751,213.54344c.36129,0,.65336-.07927.87544-.23665.22286-.15725.33357-.44932.33357-.8735,0-.2128-.02952-.39016-.08803-.52988-.05916-.14101-.13907-.2543-.23987-.33989-.10131-.08558-.22092-.14604-.36-.18006-.13907-.0339-.29194-.05156-.45873-.05156h-.6464v2.21154h.58401Z"/>
    <path class="cls-11" d="M48.86841,210.12857h.02075l1.04274-2.83834h1.62636l-1.929,4.45323v2.89003h-1.50108v-2.89003l-1.92888-4.45323h1.68914l.97997,2.83834Z"/>
    <path class="cls-11" d="M58.46032,212.57675c0,.78173-.18432,1.33803-.55321,1.67161-.36812.33228-.93138.49843-1.68849.49843-.39647,0-.72128-.05285-.97494-.15983-.25418-.10569-.45563-.25675-.60476-.4519-.14977-.1963-.25237-.42419-.3078-.68468-.05529-.26062-.08301-.53374-.08301-.82195v-.31978h1.3758v.22659c0,.39145.04344.68094.13018.86977.08687.18883.26629.28189.53748.28189.27067,0,.45009-.09306.53684-.28189.08687-.18883.13031-.47832.13031-.86977v-5.24502h1.5016v5.28652Z"/>
    <path class="cls-11" d="M62.74574,207.29023l1.97051,7.34326h-1.56398l-.34427-1.55328h-1.98056l-.34427,1.55328h-1.56398l1.97051-7.34326h1.85605ZM62.54737,211.86681l-.71935-3.30158h-.02075l-.71935,3.30158h1.45945Z"/>
    <path class="cls-11" d="M68.4955,209.04858c-.03081-.14346-.0812-.2757-.15106-.39518-.06922-.11961-.15802-.21912-.26565-.29839-.10814-.07927-.23845-.11832-.3908-.11832-.3618,0-.62242.19888-.78225.59664s-.23974,1.05614-.23974,1.97489c0,.43811.01379.83587.0415,1.19213.02771.35742.07862.6607.15106.90998.07295.25044.17748.44313.31269.57654.13598.1334.31153.20004.52678.20004.09074,0,.18947-.02385.2971-.07166s.20893-.11961.30277-.21525c.0937-.09693.17181-.21783.23407-.36631.0629-.1472.09448-.31965.09448-.51853v-.75144h-.99067v-1.09004h2.42936v3.95983h-1.10525v-.67836h-.02075c-.18122.2882-.39841.49211-.65194.61172-.25366.11948-.55759.17993-.91191.17993-.45886,0-.83265-.07927-1.12098-.23665-.28885-.15738-.5148-.4015-.67785-.73005-.16356-.32971-.27312-.73507-.32842-1.21842-.05607-.48335-.08378-1.04467-.08378-1.68166,0-.61675.04034-1.15926.12026-1.62495.07991-.46582.21705-.85597.41155-1.16686.1945-.31218.4519-.54754.77155-.70491.31978-.15738.71948-.23665,1.19896-.23665.82066,0,1.41111.20017,1.77292.60167.36129.4015.54186.97559.54186,1.722h-1.4387c0-.13598-.01572-.27699-.04717-.42174Z"/>
    <path class="cls-11" d="M73.80793,207.29023c.62551,0,1.11208.15596,1.45945.46814.34801.31218.52176.78676.52176,1.42491,0,.4934-.10066.89619-.30277,1.20837-.20133.31218-.51415.51235-.93834.60167v.02011c.37572.05542.65013.17504.82388.36.17362.18509.28124.48335.32339.89503.01392.13714.02397.28563.03093.44674.00683.16112.01379.34118.0214.54006.01379.39145.03454.6897.06226.8949.0415.2052.13211.34621.27119.42174v.06161h-1.62688c-.07605-.10324-.12515-.22157-.14591-.35497-.02088-.1334-.03467-.27183-.04163-.41658l-.0415-1.40854c-.01379-.2882-.08687-.5148-.21899-.67849-.13224-.16485-.35433-.2467-.66715-.2467h-.803v3.10528h-1.50173v-7.34326h2.77364ZM73.16154,210.49862c.36129,0,.63944-.08301.83393-.25173.1945-.16743.29194-.45061.29194-.84837,0-.67849-.34737-1.01825-1.04222-1.01825h-.70917v2.11835h.62551Z"/>
    <path class="cls-11" d="M80.13668,207.29023l1.97051,7.34326h-1.56385l-.34427-1.55328h-1.98069l-.34414,1.55328h-1.56398l1.97051-7.34326h1.85592ZM79.93844,211.86681l-.71935-3.30158h-.02075l-.71935,3.30158h1.45945Z"/>
    <path class="cls-11" d="M86.17349,212.32h.02075v-5.02977h1.37644v7.34326h-1.71002l-1.83517-5.14178h-.02075v5.14178h-1.37644v-7.34326h1.73077l1.81442,5.02977Z"/>
    <path class="cls-11" d="M91.11587,207.29023h1.5016v6.12987h2.65841v1.21339h-4.16v-7.34326Z"/>
    <path class="cls-11" d="M99.24846,207.29023l1.97115,7.34326h-1.56463l-.34363-1.55328h-1.98121l-.34363,1.55328h-1.56463l1.97115-7.34326h1.85541ZM99.05074,211.86681l-.71986-3.30158h-.02024l-.71999,3.30158h1.46009Z"/>
    <path class="cls-11" d="M103.24232,210.23181h.0214l1.89691-2.94158h1.62624l-2.02271,3.14678,2.25304,4.19648h-1.68914l-1.53318-3.01338-.55256.83329v2.18009h-1.5016v-7.34326h1.5016v2.94158Z"/>
    <path class="cls-11" d="M111.49943,208.50362h-2.65841v1.72819h2.50245v1.21339h-2.50245v1.97489h2.76294v1.21339h-4.26454v-7.34326h4.16v1.21339Z"/>
    <path class="cls-11" d="M115.34107,208.60171c-.12838-.24283-.36245-.36502-.70362-.36502-.18754,0-.34234.0504-.46324.14861-.12206.09938-.2177.26178-.28691.48335-.06922.22402-.11832.5148-.14604.87479s-.0415.80055-.0415,1.32166c0,.55501.01882,1.00446.05658,1.3468.03905.34363.09822.60915.17748.79681.08056.1887.18122.31592.30212.38126.12206.06548.26307.09693.4229.09693.13224,0,.25559-.0214.37005-.06664.11459-.04408.21396-.1334.2971-.26681.08314-.13353.14977-.32223.19759-.56648.04911-.24296.07308-.5639.07308-.96167h1.5016c0,.39776-.03145.77542-.09319,1.13155-.0629.35755-.17993.66844-.34994.93653-.16988.26681-.41026.47574-.7187.6268-.3096.15106-.7111.22659-1.2045.22659-.5639,0-1.01206-.08932-1.34564-.2681-.33357-.17748-.58904-.43424-.76652-.77039-.1762-.33602-.29207-.73752-.34363-1.20321-.05169-.46711-.07811-.98061-.07811-1.54323,0-.55514.02642-1.06736.07811-1.53691.05156-.46956.16743-.87234.34363-1.20837.17748-.33602.43295-.59909.76652-.78663.33357-.18883.78173-.28331,1.34564-.28331.5349,0,.95651.08558,1.26624.25675.3096.1713.54122.389.69357.65336.15222.26436.24799.54882.28691.8534.03777.30586.05671.59162.05671.85842h-1.50044c0-.53374-.06548-.9239-.19385-1.16686Z"/>
    <path class="cls-11" d="M118.0259,207.29023h1.50173v7.34326h-1.50173v-7.34326Z"/>
    <path class="cls-11" d="M125.00169,208.50362h-1.62752v6.12987h-1.50031v-6.12987h-1.62752v-1.21339h4.75536v1.21339Z"/>
    <path class="cls-11" d="M127.82624,210.12857h.0214l1.04222-2.83834h1.62752l-1.92952,4.45323v2.89003h-1.50173v-2.89003l-1.92836-4.45323h1.68926l.9792,2.83834Z"/>
    <path class="cls-11" d="M134.97835,212.4119c0,.18496.0125.35497.03648.50977.02513.15351.0705.28704.13598.40021.06664.1133.15609.20275.27055.2681.11587.06548.25933.09693.43308.09693.18122,0,.32726-.03145.43798-.09693.11072-.06535.20017-.1548.26565-.2681.06664-.11317.11201-.2467.13585-.40021.02397-.1548.03648-.32481.03648-.50977v-5.12167h1.50173v5.12167c0,.46698-.06677.85211-.19888,1.15668-.13095.30599-.30844.54766-.53117.72502-.22286.17877-.47587.29839-.7615.36-.28447.06174-.58027.09319-.88614.09319s-.60051-.02771-.88614-.08185c-.28447-.05529-.53877-.16614-.76163-.33473-.22144-.16743-.39892-.40666-.53117-.71497-.13211-.30844-.19759-.70994-.19759-1.20334v-5.12167h1.50044v5.12167Z"/>
    <path class="cls-11" d="M142.72698,212.32h.02011v-5.02977h1.37709v7.34326h-1.71066l-1.83517-5.14178h-.02011v5.14178h-1.37709v-7.34326h1.73077l1.81506,5.02977Z"/>
    <path class="cls-11" d="M145.23806,207.29023h1.50173v7.34326h-1.50173v-7.34326Z"/>
    <path class="cls-11" d="M150.02371,212.72021h.03145l1.10525-5.42998h1.55315l-1.70924,7.34326h-1.92965l-1.70937-7.34326h1.60484l1.05357,5.42998Z"/>
    <path class="cls-11" d="M157.42626,208.50362h-2.65841v1.72819h2.50232v1.21339h-2.50232v1.97489h2.76281v1.21339h-4.26454v-7.34326h4.16013v1.21339Z"/>
    <path class="cls-11" d="M161.05638,207.29023c.62551,0,1.11144.15596,1.4588.46814.34749.31218.52111.78676.52111,1.42491,0,.4934-.10066.89619-.30212,1.20837-.20133.31218-.5148.51235-.93769.60167v.02011c.37508.05542.64949.17504.82324.36.17362.18509.28189.48335.32352.89503.01379.13714.02385.28563.03145.44674.00632.16112.01379.34118.02011.54006.01379.39145.03519.6897.0629.8949.04163.2052.13224.34621.27067.42174v.06161h-1.62624c-.07682-.10324-.12464-.22157-.14604-.35497-.02011-.1334-.03532-.27183-.0415-.41658l-.04163-1.40854c-.01379-.2882-.08674-.5148-.21899-.67849-.13211-.16485-.35497-.2467-.66715-.2467h-.803v3.10528h-1.50173v-7.34326h2.77428ZM160.40934,210.49862c.36129,0,.63944-.08301.83458-.25173.19385-.16743.29207-.45061.29207-.84837,0-.67849-.34865-1.01825-1.04351-1.01825h-.70865v2.11835h.62551Z"/>
    <path class="cls-11" d="M165.28818,212.55664c0,.17117.01379.32726.0415.46698.02771.14101.08056.25933.15609.35497.07682.09693.18006.17117.30844.22659.12838.05529.28949.08172.48451.08172.22917,0,.43553-.07295.62062-.22028.1838-.1472.2757-.37624.2757-.68468,0-.16369-.02269-.30586-.06677-.42676-.04537-.11948-.12077-.22775-.2253-.32339-.10324-.09577-.24167-.1838-.41155-.26191-.17001-.07927-.38023-.15983-.63067-.24167-.33357-.11072-.62178-.23033-.86474-.36-.24412-.13083-.44687-.28318-.61043-.45808-.16369-.17504-.28331-.37765-.36-.6067-.07682-.23033-.11459-.49598-.11459-.79681,0-.72747.2052-1.26882.61546-1.62495.41039-.35626.97301-.53503,1.68926-.53503.33357,0,.64072.03648.92261.10827.28073.07179.52485.18883.73005.34994.20391.16112.36502.36631.47961.61675s.17117.55011.17117.90006v.20507h-1.4387c0-.34994-.06174-.61804-.18754-.80674-.12464-.18883-.33357-.28331-.62564-.28331-.16614,0-.30586.02397-.41658.07179-.11201.04782-.20017.11201-.26565.19012-.06664.07927-.11201.16988-.13585.27312-.02526.10311-.03661.20893-.03661.31836,0,.22659.04795.41671.14604.57151.09693.15351.30586.29581.62564.42676l1.15668.4934c.28575.12335.51866.25173.6986.38513.18135.1334.32481.27815.43308.43179.10827.1548.18251.32468.22402.50977.0415.18496.0629.39016.0629.61675,0,.77529-.22775,1.33919-.68339,1.69171-.45447.35368-1.08888.52988-1.90194.52988-.84837,0-1.45507-.18122-1.82009-.54496-.36502-.36386-.54754-.88498-.54754-1.56334v-.29839h1.5016v.21654Z"/>
    <path class="cls-11" d="M169.56277,207.29023h1.5016v7.34326h-1.5016v-7.34326Z"/>
    <path class="cls-11" d="M176.53855,208.50362h-1.62752v6.12987h-1.50031v-6.12987h-1.62752v-1.21339h4.75536v1.21339Z"/>
    <path class="cls-11" d="M179.3631,210.12857h.0214l1.04222-2.83834h1.62752l-1.92965,4.45323v2.89003h-1.5016v-2.89003l-1.92836-4.45323h1.68926l.9792,2.83834Z"/>
  </g>
  <g>
    <g>
      <path class="cls-34" d="M109.37013,103.72606c.44275-.91179,1.30632-1.74056,2.59112-2.48621l1.91689-1.10822c.85868-.4992,1.46087-.92519,1.8072-1.27797.54573-.55243.81872-1.18478.81872-1.89691,0-.83213-.24966-1.49283-.74887-1.98185-.49933-.4894-1.16493-.73404-1.99693-.73404-1.23144,0-2.08355.46608-2.55594,1.39784-.25289.4992-.39286,1.19161-.41942,2.07684h-1.82718c.02011-1.24459.24979-2.25987.68893-3.04521.77877-1.38456,2.15328-2.07684,4.12366-2.07684,1.63732,0,2.83383.44275,3.58927,1.32798.75531.88536,1.13322,1.87049,1.13322,2.95525,0,1.14508-.40292,2.12337-1.20811,2.93553-.46595.47252-1.30143,1.04506-2.50606,1.71723l-1.36781.75879c-.65232.35948-1.16506.70233-1.53756,1.02843-.6656.57898-1.08515,1.22138-1.25786,1.92694h7.80753v1.69726h-9.81451c.06638-1.23131.32107-2.30305.76369-3.21484Z"/>
      <path class="cls-32" d="M118.72501,107.24482h-10.44029l.01779-.3203c.0687-1.26572.33551-2.38631.79359-3.33135l.00077-.00039c.46775-.96308,1.38031-1.84342,2.71112-2.616l1.91779-1.10873c.83033-.4827,1.41717-.89567,1.74224-1.22744.49263-.49868.73198-1.04944.73198-1.68411,0-.75363-.21525-1.33094-.65774-1.76441-.44455-.4354-1.02792-.64717-1.78387-.64717-1.11711,0-1.86469.40279-2.28513,1.23157-.23149.45718-.36193,1.11273-.3859,1.94769l-.00928.29529h-2.43156l.00503-.30908c.02049-1.2888.26539-2.36157.7276-3.18828.83329-1.48188,2.31001-2.23255,4.38917-2.23255,1.72226,0,3.00783.48257,3.8205,1.43419.80004.93847,1.2063,1.99925,1.2063,3.1531,0,1.22254-.43604,2.28191-1.29614,3.14962-.49134.49752-1.33378,1.07587-2.57476,1.76866l-1.36832.75892c-.63003.34788-1.1291.6812-1.48445.9917-.49198.42831-.84102.89554-1.04145,1.39384h7.69501v2.30524ZM108.93177,106.63684h9.18449v-1.08914h-7.89105l.09267-.37662c.18754-.76446.64343-1.46576,1.35363-2.08368.38719-.33886.92248-.69731,1.58989-1.06581l1.36768-.75853c1.17241-.654,1.99281-1.2143,2.43736-1.66465.75389-.76034,1.11995-1.65047,1.11995-2.72156,0-1.00485-.3569-1.93287-1.06053-2.75804-.69164-.81022-1.82151-1.22113-3.35752-1.22113-1.86894,0-3.13118.62861-3.85827,1.92153-.37585.67256-.59097,1.54374-.6406,2.59216h1.22254c.04885-.78908.19617-1.43071.43901-1.90993.52665-1.03823,1.47801-1.5645,2.82738-1.5645.90959,0,1.65369.27596,2.20999.8204.5572.5465.84025,1.28635.84025,2.19916,0,.7914-.30496,1.50185-.90676,2.111-.36812.37482-.98048.80906-1.87087,1.32695l-1.91792,1.10873c-1.22396.71058-2.05493,1.50314-2.46984,2.35577-.38358.79217-.62294,1.7251-.71149,2.77789Z"/>
    </g>
    <g>
      <path class="cls-22" d="M128.88457,94.92979c.63892,1.17821.95832,2.7922.95832,4.84236,0,1.9437-.28936,3.55112-.86848,4.82251-.83883,1.8237-2.20999,2.73561-4.1136,2.73561-1.71736,0-2.99533-.74538-3.83403-2.23641-.69885-1.24459-1.04815-2.91529-1.04815-5.01224,0-1.62392.20958-3.01853.62887-4.1832.78534-2.1699,2.20664-3.25492,4.26312-3.25492,1.85051,0,3.18828.76227,4.01397,2.28629ZM127.07724,104.45482c.55256-.82504.82865-2.36273.82865-4.6128,0-1.62379-.19953-2.96014-.59896-4.00855-.39931-1.04828-1.17473-1.57249-2.32625-1.57249-1.05834,0-1.83221.49752-2.32135,1.49257-.48928.99518-.73378,2.46107-.73378,4.3982,0,1.45764.15622,2.62928.4693,3.51425.47922,1.35131,1.29795,2.02696,2.45605,2.02696.93176,0,1.67393-.41258,2.22636-1.23814Z"/>
      <path class="cls-35" d="M124.86055,107.63421c-1.82718,0-3.2062-.80455-4.09891-2.39134-.72128-1.28377-1.08734-3.02021-1.08734-5.16137,0-1.65137.21809-3.09381.64704-4.28632.82981-2.29325,2.36028-3.45561,4.54913-3.45561,1.96161,0,3.40212.82246,4.28142,2.44509h0c.66032,1.21752.99531,2.89531.99531,4.98749,0,1.97863-.30161,3.64327-.89619,4.94831-.88923,1.93403-2.36672,2.91374-4.39046,2.91374ZM124.87048,92.94756c-1.93261,0-3.23365.99917-3.9771,3.05398-.40485,1.12588-.61018,2.49897-.61018,4.07996,0,2.03534.33912,3.67163,1.00949,4.86337.78715,1.40029,1.95388,2.08136,3.56787,2.08136,1.79032,0,3.04534-.83716,3.83751-2.5589.5572-1.22422.84038-2.80418.84038-4.69516,0-1.98945-.31012-3.56993-.92171-4.69723v-.00039c-.77516-1.43109-2.00067-2.12698-3.74626-2.12698ZM124.85063,105.99688c-1.2955,0-2.21798-.75003-2.74244-2.22919-.32275-.91398-.48721-2.13059-.48721-3.61608,0-1.97579.25778-3.50059.76536-4.53263.54302-1.10306,1.41588-1.6622,2.59448-1.6622,1.28557,0,2.16333.59497,2.61085,1.7684.41052,1.07806.61855,2.46339.61855,4.11682,0,2.33321-.28807,3.89771-.88046,4.78178h0c-.60889.91114-1.4436,1.37309-2.47912,1.37309ZM124.98081,94.56477c-.94091,0-1.61038.43295-2.04797,1.32269-.46646.948-.70298,2.38258-.70298,4.26415,0,1.41627.15235,2.5647.45177,3.41333.4354,1.22706,1.14469,1.82383,2.169,1.82383.83174,0,1.47749-.36103,1.9736-1.10332h0c.51596-.76987.77735-2.26503.77735-4.44344,0-1.57945-.19476-2.89157-.57911-3.90029-.35252-.92635-1.02005-1.37696-2.04166-1.37696Z"/>
    </g>
    <g>
      <path class="cls-27" d="M132.11436,103.72606c.44275-.91179,1.3062-1.74056,2.591-2.48621l1.91689-1.10822c.85855-.4992,1.461-.92519,1.8072-1.27797.5456-.55243.8186-1.18478.8186-1.89691,0-.83213-.24941-1.49283-.74874-1.98185-.49933-.4894-1.16506-.73404-1.9968-.73404-1.23157,0-2.08342.46608-2.55594,1.39784-.25314.4992-.39286,1.19161-.41954,2.07684h-1.82705c.01998-1.24459.24966-2.25987.68906-3.04521.77864-1.38456,2.15302-2.07684,4.12353-2.07684,1.63745,0,2.8337.44275,3.58927,1.32798.75531.88536,1.13309,1.87049,1.13309,2.95525,0,1.14508-.40279,2.12337-1.20798,2.93553-.46595.47252-1.30143,1.04506-2.50618,1.71723l-1.36781.75879c-.65245.35948-1.16493.70233-1.53756,1.02843-.66573.57898-1.08489,1.22138-1.25812,1.92694h7.80766v1.69726h-9.81451c.06651-1.23131.3212-2.30305.76395-3.21484Z"/>
      <path class="cls-25" d="M141.4695,107.24482h-10.44029l.01766-.3203c.06883-1.26714.33551-2.38812.79372-3.33135h0c.46711-.9627,1.37966-1.84355,2.7119-2.61639l1.91779-1.10873c.82891-.48193,1.41588-.89516,1.74275-1.22744.49198-.49907.73069-1.04944.73069-1.68411,0-.75428-.21525-1.3312-.65761-1.76441-.44403-.4354-1.02727-.64717-1.78336-.64717-1.11776,0-1.86533.40279-2.28513,1.23118-.23149.45576-.36167,1.11131-.38655,1.94847l-.00928.29491h-2.43091l.00503-.30908c.02049-1.29008.26552-2.36286.72773-3.1888.83316-1.48136,2.30988-2.23203,4.38905-2.23203,1.72239,0,3.00796.48257,3.82063,1.43419.79991.93847,1.20618,1.99925,1.20618,3.1531,0,1.22254-.43669,2.2823-1.29679,3.14962-.48992.49727-1.33236,1.07587-2.57398,1.76866l-1.36845.75892c-.63054.34788-1.12974.6812-1.48445.9917-.49263.42857-.84167.89593-1.04132,1.39384h7.69501v2.30524ZM131.67625,106.63684h9.18449v-1.08914h-7.89118l.0928-.37624c.18677-.7642.64201-1.46538,1.35363-2.08406.38642-.33886.92158-.69731,1.59053-1.06581l1.36703-.75853c1.17292-.65439,1.99345-1.21481,2.43658-1.66426.75467-.76072,1.12059-1.65047,1.12059-2.72195,0-1.00485-.35677-1.93287-1.0604-2.75804-.69164-.81022-1.82138-1.22113-3.35765-1.22113-1.86894,0-3.13106.62861-3.85814,1.92153-.37585.67153-.59097,1.54271-.6406,2.59216h1.22177c.04885-.7981.19334-1.42503.43965-1.91031.52601-1.03784,1.47749-1.56411,2.82738-1.56411.9105,0,1.65369.27596,2.20935.8204.5572.54586.84038,1.28557.84038,2.19916,0,.7914-.30522,1.50147-.90611,2.111-.36953.37585-.9819.81022-1.871,1.32695l-1.91766,1.10873c-1.22551.71097-2.05583,1.5034-2.46932,2.35538v.00039c-.38436.79076-.62358,1.72381-.71213,2.77789Z"/>
    </g>
    <g>
      <path class="cls-24" d="M148.87295,106.94089v-3.4944h-6.2701v-1.75732l6.5498-9.08563h1.51745v9.27536h2.10662v1.56759h-2.10662v3.4944h-1.79715ZM148.84292,101.8789v-6.47981l-4.58277,6.47981h4.58277Z"/>
      <path class="cls-26" d="M150.97467,107.24482h-2.40629v-3.49427h-6.26997v-2.15946l6.69828-9.2916h1.97798v9.27536h2.10662v2.1757h-2.10662v3.49427ZM149.17727,106.63684h1.18852v-3.49427h2.10675v-.95948h-2.10675v-9.27549h-1.05769l-6.4008,8.87966v1.3553h6.26997v3.49427ZM149.14749,102.18309h-5.47509l5.47509-7.74076v7.74076ZM144.84764,101.57484h3.69109v-5.21898l-3.69109,5.21898Z"/>
    </g>
  </g>
</svg>